# xmcd
#
# Track frame offsets:
#  150
#  18662
#  40300
#  61762
#  85852
#  106577
#  121597
#  135835
#  167722
#  180237
#  199452
#  218540
#
# Disc length: 3337 seconds
#
# Revision: 1
# Processed by: cddbd v1.5.1PL2 Copyright (c) Steve Scherf et al.
# Submitted via: Collectorz.com_Music_Collector 6.10
#
DISCID=8e0d070c
DTITLE=Guitar Shorty - Roll Over, Baby
DYEAR=1998
DGENRE=Blues
TTITLE0=Williams J. - I Want To Report A Crime
TTITLE1=Williams J. - Roll Over, Baby
TTITLE2=David Kearney - Sugar Wugar
TTITLE3=David Kearney - Hammond Scott - You're A Troublemaker
TTITLE4=David Kearney - Don't Mess With My Woman
TTITLE5=Williams J. - Me And You Last Night
TTITLE6=David Kearney - Let's Get Close
TTITLE7=David Kearney - I Wonder Who's Sleeping In My Bed
TTITLE8=Jerry Williams - The Porkchop Song
TTITLE9=David Kearney - I'm Going Back To Houston
TTITLE10=David Kearney - E. Alexander - Hard Time Woman
TTITLE11=B. Roberts - Hey Joe
EXTD=
EXTT0=
EXTT1=
EXTT2=
EXTT3=
EXTT4=
EXTT5=
EXTT6=
EXTT7=
EXTT8=
EXTT9=
EXTT10=
EXTT11=
PLAYORDER=
